<svg xmlns="http://www.w3.org/2000/svg" viewBox="0 0 448 131">
  <title>Reading University Students' Union</title>
  <path class="fill-colour" d="M51.2,87.6H37.4v40.3h-38V2.4h67c29.4,0,45.2,19.6,45.2,43.1c0,21.6-12.6,33.1-22.6,38l22.8,44.4H68.5   L51.2,87.6z M60.6,34H37.4v22h23.1C67,56,73,51.9,73,44.9C73,38.2,67,34,60.6,34z  M108.2,2.4h38.6V75c0,12,6.2,21.6,21.8,21.6c15.4,0,21.6-9.6,21.6-21.6V2.4h38.6v73.8c0,31.2-17.9,54-60.2,54   c-42.3,0-60.4-22.8-60.4-53.8V2.4z  M240.5,82c9.4,9,23.5,16.2,40.5,16.2c7.2,0,13.9-2.4,13.9-7.3c0-4.9-5.3-7.3-17.7-9.6   c-20.7-3.8-52.3-8.7-52.3-40.1c0-21.3,17.7-40.7,52.1-40.7c20.5,0,39,5.8,53.3,17.5l-20.3,26.9c-10.9-8.3-25-12.4-35-12.4   c-9.4,0-11.5,3.4-11.5,6.6c0,4.9,5.1,6.6,18.4,8.8c20.7,3.6,51.4,9.6,51.4,38.6c0,27.7-20.5,43.7-54.2,43.7   c-26.7,0-45-7.9-58.3-19.9L240.5,82z  M326.9,2.4h38.6V75c0,12,6.2,21.6,21.8,21.6c15.4,0,21.6-9.6,21.6-21.6V2.4h38.6v73.8c0,31.2-17.9,54-60.2,54   c-42.3,0-60.4-22.8-60.4-53.8V2.4z"/>
</svg>